<svg width="26" height="16" viewBox="0 0 26 16" fill="none" xmlns="http://www.w3.org/2000/svg">
<path d="M4.96887 4.35139C5.27066 3.9876 5.47546 3.49915 5.42145 3C4.97966 3.02117 4.44054 3.28089 4.12842 3.64496C3.84816 3.95673 3.60012 4.46564 3.66478 4.94386C4.16071 4.98532 4.65619 4.70497 4.96887 4.35139Z" fill="#557F96"/>
<path d="M5.41581 5.03695C4.6956 4.99561 4.08324 5.43087 3.7393 5.43087C3.39518 5.43087 2.8685 5.05778 2.29885 5.06784C1.55741 5.07833 0.86945 5.48233 0.493204 6.12489C-0.280669 7.41031 0.28898 9.31703 1.04153 10.3639C1.40699 10.8819 1.84742 11.4522 2.42777 11.4317C2.97609 11.4109 3.19101 11.0895 3.85753 11.0895C4.52355 11.0895 4.71715 11.4317 5.29759 11.4213C5.89952 11.4109 6.27583 10.9031 6.64128 10.3847C7.06053 9.79425 7.23215 9.22415 7.24295 9.19286C7.23215 9.18249 6.08226 8.75737 6.0716 7.48263C6.06074 6.41528 6.97439 5.90759 7.01739 5.8761C6.50144 5.1407 5.69529 5.05778 5.41581 5.03695Z" fill="#557F96"/>
<path d="M11.6869 3.59229C13.2522 3.59229 14.3422 4.63216 14.3422 6.14613C14.3422 7.66551 13.2298 8.71078 11.6476 8.71078H9.91444V11.367H8.66223V3.59229H11.6869V3.59229ZM9.91444 7.69783H11.3513C12.4415 7.69783 13.062 7.13216 13.062 6.15153C13.062 5.171 12.4415 4.61064 11.3569 4.61064H9.91444V7.69783Z" fill="#557F96"/>
<path d="M14.6694 9.75567C14.6694 8.76423 15.4577 8.15544 16.8555 8.07999L18.4655 7.98843V7.55205C18.4655 6.92165 18.0238 6.5445 17.286 6.5445C16.587 6.5445 16.1509 6.86771 16.0448 7.37424H14.9043C14.9714 6.35048 15.877 5.59619 17.3306 5.59619C18.7563 5.59619 19.6675 6.32356 19.6675 7.46039V11.3666H18.5102V10.4345H18.4823C18.1414 11.0649 17.3977 11.4636 16.6263 11.4636C15.4745 11.4636 14.6694 10.7739 14.6694 9.75567ZM18.4655 9.24384V8.79665L17.0175 8.88281C16.2963 8.93134 15.8882 9.23843 15.8882 9.72335C15.8882 10.219 16.3131 10.5423 16.9616 10.5423C17.8058 10.5423 18.4655 9.98191 18.4655 9.24384Z" fill="#557F96"/>
<path d="M20.7601 13.4514V12.5085C20.8493 12.53 21.0506 12.53 21.1513 12.53C21.7103 12.53 22.0123 12.3038 22.1967 11.7219C22.1967 11.7111 22.303 11.3771 22.303 11.3717L20.1786 5.69824H21.4867L22.974 10.3103H22.9962L24.4835 5.69824H25.7581L23.5552 11.6626C23.0522 13.0366 22.4708 13.4783 21.252 13.4783C21.1513 13.4783 20.8493 13.4675 20.7601 13.4514Z" fill="#557F96"/>
</svg>
