<svg width="16" height="16" viewBox="0 0 16 16" fill="none" xmlns="http://www.w3.org/2000/svg">
<path d="M14.6889 13H1.31111C1.14 13 1 13.16 1 13.3556V14.6444C1 14.8402 1.14 15 1.31111 15H14.6889C14.86 15 15 14.8402 15 14.6444V13.3556C15 13.16 14.86 13 14.6889 13Z" fill="#557F96"/>
<path d="M14.7363 5.41454L8.26367 1.073C8.11869 0.975668 7.88116 0.975668 7.73618 1.073L1.26367 5.41454C1.11884 5.51186 1 5.74174 1 5.92522V6.66611C1 6.84975 1.14 7 1.31111 7H14.6889C14.86 7 15 6.84975 15 6.66611V5.92522C15 5.74174 14.8812 5.51186 14.7363 5.41454ZM8 5.40352C7.39598 5.40352 6.90629 4.87798 6.90629 4.22974C6.90629 3.58133 7.39598 3.05595 8 3.05595C8.60418 3.05595 9.09371 3.58133 9.09371 4.22974C9.09371 4.87798 8.60418 5.40352 8 5.40352Z" fill="#557F96"/>
<path d="M14 8H12V12H14V8Z" fill="#557F96"/>
<path d="M9 8H7V12H9V8Z" fill="#557F96"/>
<path d="M4 8H2V12H4V8Z" fill="#557F96"/>
</svg>
