<svg width="24" height="16" viewBox="0 0 24 16" fill="none" xmlns="http://www.w3.org/2000/svg">
<path d="M22.7511 8.00013C22.7511 11.5383 19.8829 14.4065 16.3447 14.4065C12.8066 14.4065 9.93835 11.5383 9.93835 8.00013C9.93835 4.46199 12.8066 1.59375 16.3447 1.59375C19.8829 1.59375 22.7511 4.46199 22.7511 8.00013Z" fill="#F79F1A"/>
<path d="M14.8128 8.00013C14.8128 11.5383 11.9445 14.4065 8.40638 14.4065C4.86824 14.4065 2 11.5383 2 8.00013C2 4.46199 4.86824 1.59375 8.40638 1.59375C11.9445 1.59375 14.8128 4.46199 14.8128 8.00013Z" fill="#EA001B"/>
<path d="M12.3498 2.92773C10.7932 4.15062 9.88428 6.02053 9.88428 8.00007C9.88428 9.9796 10.7932 11.8495 12.3498 13.0724C13.9065 11.8495 14.8154 9.9796 14.8154 8.00007C14.8154 6.02053 13.9065 4.15062 12.3498 2.92773Z" fill="#FF5F01"/>
</svg>
