<svg width="26" height="9" viewBox="0 0 26 9" fill="none" xmlns="http://www.w3.org/2000/svg">
<path d="M12.5501 0.184127L10.8481 8.15871H8.82475L10.5141 0.184127H12.5501ZM21.1731 5.33332L22.251 2.3365L22.8813 5.33332H21.1731ZM23.4423 8.15871H25.3333L23.7008 0.184127H21.9484C21.568 0.176806 21.2213 0.402927 21.0722 0.755554L18.0214 8.16506H20.1709L20.5995 6.99046H23.228L23.4423 8.15871ZM18.0907 5.55554C18.0907 3.44761 15.1975 3.33332 15.2227 2.38095C15.2227 2.09523 15.5 1.80952 16.0926 1.71428C16.7865 1.64708 17.4856 1.76992 18.1159 2.06984L18.4752 0.355555C17.8704 0.126627 17.2303 0.00628761 16.5842 0C14.5545 0 13.1363 1.07936 13.1237 2.63491C13.0984 3.81586 14.1196 4.45078 14.8949 4.81904C15.6702 5.18729 15.9602 5.45395 15.9539 5.80951C15.9539 6.34919 15.3235 6.58411 14.7247 6.59046C13.9876 6.60981 13.2581 6.43704 12.6068 6.08887L12.2349 7.84125C12.9585 8.1238 13.728 8.26806 14.5041 8.26666C16.6536 8.26666 18.0655 7.19998 18.0718 5.53649L18.0907 5.55554ZM9.62528 0.184127L6.30339 8.16506H4.14133L2.52136 1.79682C2.48843 1.49743 2.30513 1.23607 2.036 1.10476C1.38854 0.791158 0.70451 0.560782 0 0.419047L0.0504271 0.190476H3.5299C4.00141 0.18808 4.40359 0.53377 4.47541 1.00317L5.33897 5.61903L7.46952 0.190476L9.62528 0.184127Z" fill="#172274"/>
</svg>
